<svg width="24" height="24" viewBox="0 0 24 24" fill="none" xmlns="http://www.w3.org/2000/svg">
<path d="M12 0C9.62663 0 7.30655 0.703788 5.33316 2.02236C3.35977 3.34094 1.8217 5.21509 0.913451 7.4078C0.00519939 9.60051 -0.232441 12.0133 0.230582 14.3411C0.693605 16.6689 1.83649 18.8071 3.51472 20.4853C5.19295 22.1635 7.33115 23.3064 9.65892 23.7694C11.9867 24.2324 14.3995 23.9948 16.5922 23.0866C18.7849 22.1783 20.6591 20.6402 21.9776 18.6668C23.2962 16.6935 24 14.3734 24 12C24 8.8174 22.7357 5.76515 20.4853 3.51472C18.2348 1.26428 15.1826 0 12 0ZM18.2125 14.5775C18.2018 15.0957 18.1033 15.6084 17.9213 16.0937C17.7607 16.5088 17.5152 16.8858 17.2005 17.2005C16.8858 17.5152 16.5089 17.7607 16.0938 17.9212C15.6084 18.1033 15.0957 18.2018 14.5775 18.2125C13.91 18.2425 13.6975 18.25 12 18.25C10.3025 18.25 10.09 18.2425 9.4225 18.2125C8.90426 18.2018 8.39159 18.1033 7.90625 17.9212C7.49116 17.7607 7.11418 17.5152 6.79947 17.2005C6.48477 16.8858 6.23929 16.5088 6.07875 16.0937C5.89671 15.6084 5.79823 15.0957 5.78751 14.5775C5.7575 13.91 5.75 13.6975 5.75 12C5.75 10.3025 5.7575 10.09 5.78751 9.4225C5.79823 8.90426 5.89671 8.39158 6.07875 7.90625C6.23929 7.49115 6.48477 7.11417 6.79947 6.79947C7.11418 6.48476 7.49116 6.23928 7.90625 6.07875C8.39159 5.8967 8.90426 5.79822 9.4225 5.7875C10.09 5.7575 10.3025 5.75 12 5.75C13.6975 5.75 13.91 5.7575 14.5775 5.7875C15.0957 5.79822 15.6084 5.8967 16.0938 6.07875C16.5089 6.23928 16.8858 6.48476 17.2005 6.79947C17.5152 7.11417 17.7607 7.49115 17.9213 7.90625C18.1033 8.39158 18.2018 8.90426 18.2125 9.4225C18.2425 10.09 18.25 10.3025 18.25 12C18.25 13.6975 18.2425 13.91 18.2125 14.5775Z" fill="white"/>
</svg>
